<?xml version="1.0" standalone="no"?>
<!DOCTYPE svg PUBLIC "-//W3C//DTD SVG 20010904//EN"
 "http://www.w3.org/TR/2001/REC-SVG-20010904/DTD/svg10.dtd">
<svg version="1.0" xmlns="http://www.w3.org/2000/svg"
 width="1280.000000pt" height="219.000000pt" viewBox="0 0 1280.000000 219.000000"
 preserveAspectRatio="xMidYMid meet">

<g transform="translate(0.000000,219.000000) scale(0.100000,-0.100000)"
fill="#000000" stroke="none">
<path d="M1007 1790 c-15 -16 -30 -43 -33 -60 -4 -16 -12 -30 -19 -30 -8 0
-16 -18 -20 -40 -4 -22 -11 -42 -16 -46 -5 -3 -9 -13 -9 -22 0 -9 -6 -28 -13
-42 -7 -14 -19 -53 -26 -87 -8 -37 -19 -63 -26 -63 -7 0 -16 -19 -19 -45 -4
-25 -11 -45 -15 -45 -5 0 -11 -17 -15 -39 -3 -21 -13 -44 -21 -51 -13 -11 -15
-8 -15 19 0 20 -5 31 -14 31 -8 0 -17 9 -21 20 -8 27 -56 34 -184 27 -79 -4
-117 -11 -148 -26 -23 -12 -49 -21 -58 -21 -8 0 -15 -4 -15 -9 0 -5 -11 -12
-25 -15 -14 -4 -25 -11 -25 -16 0 -6 -8 -10 -18 -10 -10 0 -24 -9 -32 -20 -8
-11 -20 -20 -28 -20 -7 0 -15 -7 -18 -15 -4 -8 -12 -15 -20 -15 -8 0 -14 -4
-14 -8 0 -5 -8 -18 -18 -30 -40 -49 -52 -67 -52 -79 0 -7 -7 -13 -15 -13 -8 0
-15 -6 -15 -13 0 -7 -9 -30 -21 -51 -19 -35 -20 -52 -17 -245 3 -230 -3 -208
85 -296 45 -44 64 -55 127 -73 88 -26 171 -28 256 -6 62 16 130 49 130 64 0 4
13 12 28 18 15 5 39 26 52 46 14 20 28 36 33 36 4 0 7 6 7 14 0 7 11 25 25 40
14 15 25 34 25 42 0 7 4 14 9 14 5 0 12 18 16 40 4 22 11 40 15 40 5 0 12 15
16 34 3 19 12 37 19 40 7 2 18 30 25 60 6 31 16 58 21 61 5 4 9 16 9 28 0 12
7 35 15 50 8 15 17 43 21 62 3 18 12 36 20 39 7 3 17 23 20 46 4 22 10 40 15
40 4 0 11 20 15 45 3 25 10 45 14 45 5 0 11 18 15 40 4 23 12 40 20 40 7 0 16
6 18 13 3 6 6 -2 6 -19 1 -18 12 -43 29 -62 24 -26 36 -32 70 -32 23 0 42 4
42 9 0 5 13 12 30 16 16 3 32 14 35 23 8 24 64 86 71 79 4 -4 -5 -31 -20 -60
-14 -30 -26 -64 -26 -75 0 -12 -4 -22 -9 -22 -5 0 -12 -18 -16 -40 -4 -22 -10
-40 -13 -40 -4 0 -13 -15 -21 -32 -7 -18 -19 -47 -27 -65 -8 -17 -14 -38 -14
-46 0 -9 -5 -17 -11 -19 -8 -3 -12 -35 -13 -90 -1 -81 0 -87 26 -111 36 -33
83 -40 251 -36 135 4 135 4 166 34 26 25 30 38 31 78 0 41 -3 50 -20 54 -11 3
-20 9 -20 14 0 5 -43 9 -95 9 -89 0 -95 1 -95 20 0 11 6 23 14 26 8 3 17 23
21 45 4 21 10 39 15 39 4 0 11 20 14 45 4 25 11 45 15 45 5 0 11 18 15 39 3
21 12 41 20 44 8 3 17 24 21 46 4 23 11 41 15 41 5 0 12 20 16 45 3 25 10 45
15 45 5 0 12 18 15 39 4 22 12 42 20 45 7 3 16 21 20 41 3 19 10 37 14 40 4 3
14 34 21 70 7 36 16 65 21 65 13 0 9 69 -4 86 -43 52 -47 54 -112 54 -66 0
-73 -3 -137 -62 -10 -10 -21 -18 -24 -18 -3 0 -18 -14 -33 -31 -15 -17 -51
-56 -79 -85 -29 -30 -53 -59 -53 -64 0 -6 -9 -10 -20 -10 -13 0 -20 7 -20 19
0 11 -4 22 -9 25 -5 3 -12 33 -16 66 -4 33 -11 60 -16 60 -5 0 -9 10 -9 23 0
13 -13 35 -28 50 -23 22 -37 27 -78 27 -41 -1 -54 -6 -77 -30z m-264 -647 c-7
-2 -13 -14 -13 -26 0 -12 -7 -35 -15 -50 -8 -15 -17 -43 -21 -63 -3 -19 -10
-36 -14 -39 -5 -3 -11 -23 -15 -45 -4 -23 -12 -40 -20 -40 -7 0 -16 -16 -19
-35 -4 -19 -13 -47 -21 -62 -8 -15 -15 -31 -15 -36 0 -10 -81 -138 -100 -158
-17 -17 -103 -59 -122 -59 -29 0 -78 25 -89 47 -7 13 -18 23 -25 23 -7 0 -16
17 -19 38 -4 20 -11 47 -18 60 -8 16 -8 35 1 70 6 26 14 62 17 80 4 17 11 32
16 32 5 0 15 15 23 34 18 42 53 84 88 102 14 7 32 19 40 26 28 26 61 39 109
45 27 3 52 10 55 14 3 5 27 9 53 9 46 0 101 18 101 33 0 4 8 7 18 6 10 0 12
-3 5 -6z"/>
<path d="M3525 1794 c-11 -14 -26 -32 -32 -39 -7 -7 -15 -31 -19 -54 -4 -23
-12 -41 -19 -41 -7 0 -16 -17 -20 -37 -4 -21 -10 -42 -15 -48 -4 -5 -13 -36
-20 -67 -6 -32 -15 -58 -20 -58 -4 0 -11 -18 -15 -41 -4 -22 -13 -43 -20 -45
-8 -3 -16 -23 -20 -45 -4 -21 -10 -41 -15 -44 -4 -3 -11 -20 -14 -39 -4 -20
-13 -48 -21 -63 -8 -15 -15 -36 -15 -46 0 -10 -6 -20 -14 -23 -8 -3 -17 -23
-21 -45 -4 -21 -11 -39 -16 -39 -5 0 -9 -10 -9 -22 0 -13 -6 -35 -14 -49 -7
-14 -16 -42 -20 -62 -4 -22 -13 -37 -21 -37 -7 0 -16 -10 -18 -22 -3 -18 -5
-16 -6 7 -2 52 -29 65 -131 65 -77 0 -93 3 -110 20 -20 20 -29 90 -11 90 5 0
13 10 17 23 10 31 103 117 127 117 11 0 37 7 58 16 31 14 38 23 43 56 8 52 -1
85 -27 92 -12 3 -80 6 -150 6 -139 0 -157 6 -157 53 0 34 -39 57 -95 57 -65 0
-91 -29 -115 -129 -7 -29 -19 -55 -26 -58 -8 -3 -14 -13 -14 -22 0 -9 -7 -29
-16 -46 -22 -40 -24 -142 -4 -155 8 -5 38 -10 65 -10 40 0 56 5 78 25 15 14
27 32 27 40 0 8 4 15 9 15 5 0 11 14 15 30 3 18 12 30 21 30 12 0 15 -6 9 -22
-3 -12 -12 -28 -18 -35 -29 -33 -36 -43 -42 -67 -3 -14 -12 -26 -19 -26 -16 0
-26 -74 -18 -139 4 -33 10 -51 19 -51 8 0 14 -6 14 -13 0 -24 45 -67 80 -77
19 -6 93 -10 163 -10 141 0 189 13 202 53 7 21 7 21 12 3 10 -37 44 -55 104
-56 57 0 99 23 99 55 0 8 7 15 15 15 8 0 17 14 21 35 3 19 10 38 15 40 4 3 13
32 20 65 6 33 15 60 20 60 13 0 59 -46 59 -59 0 -6 4 -11 9 -11 5 0 12 -8 15
-17 4 -10 14 -32 24 -49 16 -28 24 -39 60 -79 6 -7 12 -18 12 -24 0 -17 36
-31 78 -31 30 0 47 7 71 29 40 37 42 83 5 126 -14 17 -39 58 -55 91 -15 34
-35 64 -44 67 -19 8 -20 37 0 37 8 0 15 5 15 10 0 6 5 10 11 10 6 0 23 12 38
28 16 15 44 42 65 60 31 28 36 39 36 77 0 65 -18 79 -99 73 -61 -5 -70 -9
-110 -47 -24 -22 -50 -41 -58 -41 -7 0 -16 -7 -19 -15 -9 -22 -24 -18 -24 5 0
11 4 20 9 20 5 0 12 18 16 40 4 23 12 40 20 40 8 0 16 17 20 40 4 22 10 42 15
45 5 3 11 23 15 45 4 22 10 40 15 40 4 0 10 18 14 40 3 23 13 43 20 46 8 3 18
24 21 47 4 23 12 45 17 48 6 4 11 29 11 57 3 73 -18 92 -97 92 -53 -1 -64 -4
-81 -26z"/>
<path d="M5660 1810 c0 -5 -8 -10 -17 -10 -40 0 -71 -115 -40 -143 29 -27 60
-37 113 -37 54 0 56 -1 50 -22 -3 -13 -6 -29 -6 -35 0 -7 -7 -13 -15 -13 -9 0
-15 -9 -15 -21 0 -12 -6 -35 -14 -52 -8 -18 -20 -57 -27 -87 -7 -30 -20 -70
-31 -88 -10 -18 -18 -39 -18 -46 0 -8 -7 -16 -15 -20 -9 -3 -15 0 -15 10 0 8
-6 22 -14 30 -8 7 -16 19 -18 26 -6 17 -278 18 -299 2 -8 -6 -33 -16 -56 -24
-24 -7 -43 -17 -43 -22 0 -4 -9 -8 -19 -8 -11 0 -26 -7 -35 -15 -8 -8 -18 -15
-23 -15 -5 0 -15 -9 -23 -20 -8 -11 -22 -20 -31 -20 -9 0 -25 -12 -35 -26 -10
-15 -36 -45 -56 -67 -21 -22 -38 -46 -38 -54 0 -7 -4 -13 -10 -13 -5 0 -10 -6
-10 -12 -1 -7 -9 -31 -20 -53 -11 -22 -19 -50 -20 -62 0 -13 -6 -23 -14 -23
-10 0 -15 -22 -20 -80 -9 -100 2 -220 19 -220 8 0 16 -18 20 -40 4 -22 11 -40
15 -40 5 0 12 -9 15 -21 9 -28 36 -59 52 -59 7 0 13 -4 13 -9 0 -16 79 -61
108 -61 15 0 33 -5 39 -11 13 -13 166 -7 238 10 28 6 57 20 67 31 9 11 21 20
27 20 6 0 39 28 74 63 61 61 107 131 107 162 0 8 4 15 9 15 5 0 15 16 22 35 7
19 16 35 20 35 3 0 12 27 19 60 7 33 16 60 20 60 4 0 11 20 14 44 4 24 13 47
21 50 8 3 18 23 21 46 4 22 10 40 14 40 5 0 11 18 15 40 4 22 10 42 15 45 5 3
11 23 15 44 4 22 12 42 19 44 8 3 17 23 21 44 4 21 12 41 18 45 7 4 51 8 99 8
48 0 90 5 93 10 3 6 17 10 30 10 13 0 27 5 30 10 3 6 15 10 27 10 18 0 49 28
101 90 9 11 19 35 23 55 3 19 10 38 15 41 12 7 12 174 0 174 -5 0 -11 14 -15
30 -7 38 -29 62 -86 91 -43 23 -55 24 -292 27 -168 2 -248 0 -248 -8z m418
-234 c2 -22 1 -49 -2 -61 -6 -24 -44 -45 -81 -45 -29 0 -33 28 -11 71 7 14 16
38 20 53 6 24 11 27 39 24 29 -3 32 -6 35 -42z m-502 -498 c-9 -17 -16 -37
-16 -45 0 -7 -4 -13 -10 -13 -5 0 -10 -6 -10 -14 0 -7 -7 -27 -15 -42 -8 -16
-15 -37 -15 -46 0 -9 -4 -19 -9 -22 -5 -4 -12 -24 -16 -46 -4 -22 -10 -40 -14
-40 -4 0 -13 -16 -21 -35 -8 -19 -17 -35 -20 -35 -4 0 -12 -19 -19 -41 -13
-44 -22 -58 -60 -92 -14 -12 -32 -30 -42 -39 -10 -9 -35 -22 -56 -28 -70 -21
-150 34 -160 112 -3 21 -10 41 -14 44 -12 7 -11 71 1 79 6 3 10 19 10 36 0 30
48 149 60 149 4 0 26 18 49 40 23 22 48 40 56 40 8 0 15 3 15 8 0 12 52 32 98
39 23 3 45 10 48 14 3 5 26 9 51 9 52 0 112 18 114 35 1 5 4 0 6 -13 2 -12 -3
-36 -11 -54z"/>
<path d="M8222 1791 c-17 -17 -32 -34 -32 -38 0 -4 -11 -30 -25 -57 -14 -27
-25 -55 -25 -63 0 -7 -4 -13 -9 -13 -5 0 -11 -18 -15 -40 -3 -22 -10 -40 -15
-40 -5 0 -12 -20 -15 -45 -4 -25 -11 -45 -17 -45 -5 0 -9 -6 -9 -14 0 -12 -19
-57 -50 -116 -5 -8 -14 -13 -22 -10 -7 3 -65 5 -128 5 -126 0 -121 1 -196 -75
-53 -54 -74 -82 -74 -97 0 -7 -4 -13 -9 -13 -5 0 -12 -16 -15 -35 -4 -19 -14
-39 -23 -43 -25 -15 -25 -209 0 -237 10 -11 34 -38 53 -60 l36 -40 134 0 c98
0 137 3 143 13 6 10 14 9 39 -4 26 -12 57 -15 145 -12 108 3 114 4 141 31 22
22 28 37 29 74 0 62 -25 81 -113 85 -59 3 -65 5 -62 23 2 11 7 22 12 25 4 3
11 24 15 48 4 23 11 42 16 42 5 0 9 7 9 15 0 15 19 56 31 65 4 3 10 24 14 48
4 23 10 42 15 42 5 0 11 18 15 40 4 22 10 40 15 40 4 0 15 26 25 58 10 31 21
62 25 67 5 6 11 27 15 48 4 20 11 37 15 37 4 0 11 20 14 45 5 29 12 45 21 45
8 0 17 15 21 38 4 20 11 40 17 43 5 4 10 32 11 62 1 69 -16 86 -89 87 -42 0
-56 -5 -83 -29z m-309 -635 c18 -14 24 -80 8 -90 -5 -3 -12 -22 -15 -41 -4
-19 -11 -35 -15 -35 -5 0 -12 -16 -15 -35 -5 -26 -12 -35 -26 -35 -11 0 -20
-4 -20 -10 0 -30 -88 5 -96 38 -9 32 5 94 24 114 10 9 30 33 46 53 42 52 77
65 109 41z"/>
<path d="M12445 1732 c-36 -31 -54 -68 -61 -131 -3 -33 -11 -61 -15 -61 -5 0
-9 -13 -9 -29 0 -17 -4 -33 -10 -36 -5 -3 -10 -17 -10 -30 0 -13 -4 -26 -9
-29 -5 -3 -12 -33 -16 -66 -4 -33 -10 -62 -15 -65 -4 -3 -11 -29 -15 -60 -3
-30 -11 -57 -16 -60 -5 -4 -9 -19 -9 -35 0 -16 -4 -32 -10 -35 -20 -12 -11
-89 14 -117 19 -23 32 -28 70 -28 25 0 46 4 46 9 0 5 6 16 13 23 7 7 26 40 41
73 15 33 32 68 37 77 5 9 12 35 15 58 4 22 10 40 14 40 4 0 13 34 21 75 8 46
18 75 25 75 7 0 16 19 20 45 3 25 10 45 14 45 4 0 10 19 14 42 4 23 11 45 17
49 6 3 11 35 12 72 2 60 -1 67 -26 91 -23 21 -38 26 -80 26 -34 -1 -59 -7 -72
-18z"/>
<path d="M10393 1560 c-18 -22 -23 -41 -23 -87 0 -53 3 -61 31 -86 47 -41 114
-37 170 11 15 13 19 30 19 76 0 56 -3 63 -32 88 -28 23 -42 28 -88 27 -48 0
-58 -4 -77 -29z"/>
<path d="M9944 1523 c-13 -14 -27 -38 -31 -52 -3 -14 -9 -30 -13 -36 -4 -5
-11 -26 -15 -45 -12 -55 -26 -70 -66 -70 -73 0 -95 -10 -112 -49 -10 -21 -17
-47 -17 -59 0 -26 45 -62 77 -62 20 0 23 -3 17 -27 -4 -16 -11 -32 -15 -37 -5
-6 -9 -17 -9 -25 0 -9 -9 -27 -20 -41 -11 -14 -20 -34 -20 -45 0 -11 -8 -33
-17 -50 -11 -20 -17 -54 -17 -101 -1 -108 0 -109 202 -109 125 0 166 3 170 13
2 7 10 19 18 27 23 23 23 125 -1 125 -8 0 -15 5 -15 10 0 6 -30 10 -70 10 -80
0 -82 2 -45 74 14 27 25 55 25 62 0 6 7 25 15 40 8 16 15 36 15 45 0 21 20 29
75 29 24 0 46 4 49 9 3 4 19 11 34 14 23 5 31 13 36 38 16 80 -2 109 -66 109
l-40 0 7 38 c4 20 11 43 17 49 6 7 11 35 11 63 1 64 -17 79 -96 80 -50 0 -61
-4 -83 -27z"/>
<path d="M6336 1415 c-23 -17 -42 -53 -51 -97 -4 -18 -10 -35 -14 -38 -11 -9
-31 -49 -31 -62 0 -7 -7 -26 -16 -43 -22 -40 -24 -142 -4 -155 8 -5 39 -10 68
-10 43 0 58 5 77 25 14 13 25 31 25 40 0 8 4 15 9 15 5 0 11 14 15 30 4 21 11
30 26 30 31 0 29 -4 -39 -86 -5 -6 -12 -21 -16 -35 -4 -13 -13 -27 -19 -31
-16 -10 -14 -180 2 -186 7 -2 12 -9 12 -16 0 -23 45 -66 80 -76 19 -6 95 -10
168 -10 180 0 202 13 202 115 0 63 -21 75 -130 75 -77 0 -93 3 -110 20 -20 20
-29 90 -11 90 5 0 13 9 16 21 9 28 36 59 52 59 7 0 13 4 13 10 0 16 43 50 64
50 10 0 36 7 57 16 31 14 38 23 43 56 8 52 -1 85 -27 92 -12 3 -80 6 -150 6
-139 0 -157 6 -157 53 0 37 -30 57 -86 57 -27 0 -57 -7 -68 -15z"/>
<path d="M1972 1313 c-35 -7 -172 -134 -172 -160 0 -7 -4 -13 -9 -13 -5 0 -12
-16 -15 -36 -4 -19 -13 -37 -20 -40 -31 -12 -31 -244 0 -244 8 0 14 -6 14 -14
0 -8 16 -32 36 -53 l36 -38 113 -4 c88 -2 121 0 145 12 26 14 34 14 58 1 18
-9 60 -14 125 -14 148 0 187 25 187 120 0 33 -4 41 -32 54 -17 9 -56 16 -89
16 l-58 0 6 33 c3 17 9 34 13 37 4 3 11 24 15 47 3 23 12 44 20 47 7 2 16 24
20 48 4 24 12 46 17 49 5 3 12 33 15 66 8 82 -8 97 -91 89 -72 -7 -71 -7 -206
-2 -58 2 -115 2 -128 -1z m144 -169 c8 -30 -2 -115 -15 -123 -4 -4 -11 -21
-14 -40 -12 -61 -78 -99 -108 -62 -9 11 -22 21 -28 21 -6 0 -11 18 -11 40 0
27 4 40 14 40 8 0 17 15 20 33 7 37 52 97 72 97 8 0 14 5 14 10 0 6 11 10 25
10 18 0 26 -7 31 -26z"/>
<path d="M4063 1313 c-18 -2 -33 -8 -33 -14 0 -5 -4 -9 -10 -9 -5 0 -20 -10
-34 -22 -83 -76 -106 -104 -106 -130 0 -10 -3 -18 -7 -18 -12 0 -33 -51 -33
-77 0 -13 -4 -23 -10 -23 -5 0 -10 -24 -10 -54 0 -30 5 -58 10 -61 6 -3 10
-17 10 -31 0 -35 65 -134 88 -134 6 0 12 -5 14 -12 5 -14 192 -24 271 -14 46
6 62 14 96 47 23 21 46 39 50 39 5 0 12 11 15 25 4 14 10 25 15 25 5 0 13 15
16 33 4 17 12 35 18 39 6 3 12 56 15 116 4 100 2 114 -19 156 -13 26 -43 63
-68 84 l-45 37 -106 1 c-58 1 -120 0 -137 -3z m146 -204 c20 -19 23 -29 19
-78 -5 -69 -29 -105 -80 -120 -31 -10 -42 -9 -63 5 -14 9 -25 20 -25 25 0 5
-7 9 -15 9 -9 0 -15 9 -15 24 0 13 7 26 15 30 8 3 15 15 15 27 0 28 76 99 105
99 12 0 32 -10 44 -21z"/>
<path d="M7093 1313 c-13 -2 -23 -9 -23 -14 0 -5 -7 -9 -15 -9 -14 0 -39 -17
-77 -52 -10 -10 -22 -18 -28 -18 -5 0 -10 -4 -10 -8 0 -5 -9 -19 -20 -32 -11
-13 -20 -31 -20 -42 0 -10 -4 -18 -9 -18 -6 0 -13 -21 -17 -47 -4 -26 -13 -53
-20 -61 -19 -19 -18 -101 1 -108 8 -4 15 -18 15 -33 0 -27 31 -94 55 -118 8
-7 20 -13 28 -13 9 0 17 -6 19 -12 3 -9 40 -14 116 -16 142 -5 195 3 228 33
15 14 34 27 44 30 11 3 24 21 30 40 6 19 15 35 20 35 5 0 12 15 16 32 3 18 14
38 23 45 13 9 16 32 16 132 0 107 -2 122 -20 140 -11 11 -31 35 -45 54 -40 56
-55 61 -175 63 -60 1 -120 0 -132 -3z m140 -207 c57 -49 18 -169 -64 -196 -32
-11 -40 -10 -63 6 -14 11 -28 25 -31 33 -8 20 5 101 16 101 5 0 9 7 9 15 0 16
66 63 90 64 8 1 27 -10 43 -23z"/>
<path d="M8464 1305 c-4 -8 -12 -15 -20 -15 -7 0 -16 -11 -20 -25 -3 -14 -10
-25 -15 -25 -5 0 -9 -8 -9 -17 0 -10 -6 -30 -14 -44 -7 -14 -16 -42 -20 -62
-4 -23 -13 -37 -21 -37 -9 0 -15 -10 -15 -22 0 -13 -7 -36 -15 -52 -8 -16 -18
-46 -21 -68 -4 -21 -11 -41 -15 -44 -12 -7 -11 -64 1 -64 6 0 10 -11 10 -23 0
-32 37 -72 79 -86 52 -17 230 -14 265 4 24 13 31 13 37 3 6 -10 47 -13 158
-13 145 0 150 1 170 24 16 18 21 38 21 82 0 71 -11 79 -103 79 -35 0 -66 2
-69 5 -7 7 14 55 24 55 3 0 9 18 13 40 4 22 10 40 15 40 5 0 11 18 15 40 4 22
11 40 16 40 5 0 9 9 9 19 0 11 5 23 10 26 6 3 10 15 10 26 0 10 5 19 10 19 18
0 11 66 -10 88 -17 18 -32 22 -83 22 -54 0 -64 -3 -84 -27 -13 -14 -23 -32
-23 -40 0 -7 -7 -13 -15 -13 -8 0 -15 -8 -15 -17 0 -10 -6 -30 -14 -44 -7 -14
-16 -42 -20 -62 -4 -21 -11 -37 -15 -37 -5 0 -11 -18 -15 -40 -3 -22 -11 -40
-17 -40 -5 0 -14 -12 -20 -27 -10 -29 -67 -73 -94 -73 -8 0 -17 11 -21 25 -8
32 14 125 32 132 8 3 17 23 20 44 4 21 10 39 14 39 5 0 11 18 15 40 4 22 11
40 16 40 15 0 10 49 -7 75 -15 22 -23 25 -80 25 -48 0 -66 -4 -70 -15z"/>
<path d="M9262 1307 c-29 -11 -99 -63 -124 -92 -38 -44 -48 -61 -54 -88 -3
-18 -10 -36 -14 -42 -3 -5 -12 -35 -19 -66 -12 -59 -3 -134 25 -187 8 -15 14
-31 14 -37 0 -13 45 -55 58 -55 6 0 12 -6 14 -12 4 -10 55 -13 214 -13 205 0
209 0 232 23 15 15 25 40 29 71 5 41 2 51 -18 69 -21 20 -34 22 -151 22 -129
0 -148 4 -191 42 -17 14 -19 26 -14 71 4 43 12 61 43 95 56 62 94 55 94 -17 0
-15 8 -38 19 -49 34 -40 145 -22 157 26 4 12 10 22 15 22 5 0 9 27 9 60 0 33
-4 60 -10 60 -5 0 -10 7 -10 15 0 8 -12 25 -26 38 -15 12 -34 29 -42 37 -20
20 -202 25 -250 7z"/>
<path d="M10358 1313 c-9 -2 -20 -13 -23 -24 -4 -10 -10 -19 -15 -19 -4 0 -11
-16 -14 -35 -4 -19 -13 -47 -21 -62 -8 -15 -15 -36 -15 -45 0 -9 -6 -21 -14
-25 -7 -4 -19 -33 -26 -63 -7 -30 -16 -59 -20 -65 -4 -5 -11 -26 -15 -45 -4
-19 -12 -40 -17 -47 -17 -22 -15 -108 4 -126 9 -9 18 -22 20 -29 4 -10 45 -13
166 -13 l160 0 26 30 c20 23 26 41 26 76 0 60 -23 77 -111 81 -58 3 -64 5 -61
23 2 11 7 22 12 25 4 3 11 20 15 38 4 18 13 36 20 38 7 3 16 25 20 50 3 24 10
44 14 44 9 0 31 91 31 131 0 58 -14 69 -83 68 -34 -1 -70 -3 -79 -6z"/>
<path d="M10838 1313 c-16 -2 -28 -9 -28 -14 0 -5 -7 -9 -15 -9 -8 0 -15 -4
-15 -10 0 -5 -6 -10 -14 -10 -24 0 -126 -111 -126 -137 0 -7 -4 -13 -10 -13
-5 0 -12 -22 -16 -50 -4 -27 -10 -50 -15 -50 -12 0 -11 -96 0 -118 6 -9 12
-33 16 -53 5 -35 62 -109 83 -109 6 0 12 -5 14 -12 6 -17 234 -24 295 -9 50
13 114 67 127 109 4 12 13 22 21 22 7 0 17 15 20 33 4 17 12 35 18 39 6 3 12
56 15 116 4 100 2 114 -18 153 -13 24 -43 62 -68 84 l-45 40 -106 1 c-58 1
-118 0 -133 -3z m141 -204 c20 -19 23 -29 19 -80 -5 -66 -23 -92 -77 -115 -31
-13 -39 -13 -67 1 -38 18 -48 40 -38 92 9 51 13 57 59 92 48 36 74 38 104 10z"/>
<path d="M11462 1301 c-12 -10 -22 -23 -22 -30 0 -6 -4 -11 -9 -11 -5 0 -12
-18 -16 -40 -4 -22 -10 -40 -15 -40 -4 0 -13 -27 -19 -61 -7 -33 -18 -62 -26
-65 -7 -3 -16 -23 -20 -45 -4 -21 -10 -39 -15 -39 -4 0 -11 -17 -15 -37 -4
-21 -11 -44 -17 -50 -6 -7 -13 -43 -16 -79 -6 -81 5 -94 83 -94 48 0 55 3 89
40 22 24 40 55 43 75 3 19 9 35 13 35 4 0 10 15 14 33 6 29 34 95 89 205 12
23 30 45 39 48 10 3 18 10 18 15 0 15 26 10 43 -9 19 -20 23 -62 7 -62 -5 0
-10 -10 -10 -22 0 -13 -6 -35 -14 -49 -7 -14 -16 -43 -20 -63 -4 -21 -16 -53
-27 -72 -10 -19 -19 -48 -19 -64 0 -37 38 -97 65 -104 11 -3 80 -6 153 -6 180
0 202 12 202 115 0 58 -23 75 -105 75 -58 0 -65 2 -65 20 0 11 4 20 9 20 5 0
13 15 16 33 4 17 11 37 15 42 13 17 32 114 33 164 1 64 -18 105 -57 126 -26
14 -50 17 -125 13 -63 -3 -95 -9 -101 -18 -7 -11 -13 -11 -34 3 -36 24 -136
23 -164 -2z"/>
<path d="M12180 900 c-11 -11 -24 -20 -29 -20 -13 0 -23 -68 -16 -111 4 -24
12 -39 21 -39 8 0 14 -4 14 -10 0 -5 7 -10 15 -10 8 0 15 -4 15 -10 0 -5 25
-10 55 -10 30 0 55 5 55 10 0 6 7 10 15 10 9 0 21 11 27 25 6 14 15 25 20 25
15 0 8 79 -9 101 -43 52 -56 59 -110 59 -40 0 -58 -5 -73 -20z"/>
</g>
</svg>
