<?xml version="1.0" standalone="no"?>
<!DOCTYPE svg PUBLIC "-//W3C//DTD SVG 20010904//EN"
 "http://www.w3.org/TR/2001/REC-SVG-20010904/DTD/svg10.dtd">
<svg version="1.0" xmlns="http://www.w3.org/2000/svg"
 width="1280.000000pt" height="219.000000pt" viewBox="0 0 1280.000000 219.000000"
 preserveAspectRatio="xMidYMid meet">
<metadata>
Created by potrace 1.16, written by Peter Selinger 2001-2019
</metadata>
<g transform="translate(0.000000,219.000000) scale(0.100000,-0.100000)"
fill="#000000" stroke="none">
<path d="M0 1095 l0 -1095 6400 0 6400 0 0 1095 0 1095 -6400 0 -6400 0 0
-1095z m1140 715 c0 -5 9 -10 20 -10 23 0 60 -33 60 -55 0 -8 4 -15 9 -15 4 0
11 -27 15 -60 4 -33 11 -60 16 -60 5 0 10 -17 12 -37 3 -35 4 -36 18 -20 8 10
34 39 58 65 23 26 51 57 62 70 12 12 27 22 35 22 8 0 15 4 15 8 0 17 46 62 63
62 9 0 17 5 17 10 0 6 9 10 20 10 11 0 20 5 20 10 0 6 16 10 35 10 19 0 35 -4
35 -10 0 -5 11 -10 25 -10 14 0 25 -4 25 -10 0 -5 7 -10 15 -10 8 0 17 -14 21
-36 8 -41 -3 -146 -15 -154 -5 -3 -12 -20 -16 -37 -3 -18 -11 -33 -16 -33 -5
0 -9 -11 -9 -25 0 -14 -4 -25 -9 -25 -6 0 -13 -20 -17 -45 -3 -25 -10 -45 -15
-45 -4 0 -11 -20 -15 -45 -3 -25 -10 -45 -15 -45 -5 0 -9 -9 -9 -20 0 -11 -4
-20 -10 -20 -5 0 -13 -18 -16 -40 -4 -22 -10 -40 -15 -40 -4 0 -11 -20 -15
-45 -3 -25 -10 -45 -15 -45 -5 0 -9 -9 -9 -20 0 -11 -4 -20 -9 -20 -5 0 -11
-19 -15 -42 -4 -23 -11 -45 -15 -48 -5 -3 -11 -15 -15 -27 -7 -22 -5 -23 53
-23 34 0 61 -4 61 -9 0 -6 17 -11 38 -13 30 -2 38 -7 40 -25 2 -13 8 -23 13
-23 5 0 9 -11 9 -25 0 -14 -4 -25 -10 -25 -5 0 -10 -8 -10 -19 0 -10 -11 -30
-25 -45 l-24 -26 -171 0 c-107 0 -170 4 -170 10 0 6 -6 10 -13 10 -8 0 -25 9
-38 21 -22 19 -24 28 -24 102 0 54 5 82 13 85 7 2 12 15 12 28 0 13 4 24 9 24
5 0 12 16 15 35 4 19 11 35 15 35 5 0 12 20 15 45 4 25 11 45 16 45 5 0 12 20
16 45 3 25 10 45 15 45 5 0 9 7 9 15 0 8 5 15 10 15 6 0 10 9 10 20 0 11 -3
20 -6 20 -8 0 -74 -72 -74 -81 0 -5 -28 -9 -61 -9 -51 0 -65 4 -80 22 -11 11
-19 25 -19 30 0 5 -7 16 -15 24 -13 14 -15 13 -15 -10 0 -14 -4 -26 -9 -26 -5
0 -12 -16 -15 -35 -4 -19 -11 -35 -16 -35 -6 0 -10 -13 -10 -29 0 -16 -5 -31
-11 -33 -5 -2 -13 -22 -16 -46 -3 -23 -9 -42 -14 -42 -5 0 -12 -18 -15 -40 -4
-22 -10 -40 -15 -40 -5 0 -9 -9 -9 -20 0 -11 -4 -20 -9 -20 -5 0 -11 -19 -15
-42 -4 -23 -12 -45 -17 -49 -6 -3 -13 -25 -16 -48 -3 -22 -9 -41 -14 -41 -4 0
-11 -16 -15 -35 -3 -19 -10 -35 -15 -35 -5 0 -9 -7 -9 -15 0 -8 -4 -15 -9 -15
-5 0 -11 -14 -15 -31 -3 -16 -13 -37 -21 -45 -8 -9 -15 -24 -15 -34 0 -10 -9
-22 -20 -25 -11 -3 -20 -10 -20 -15 0 -5 -16 -25 -35 -46 -19 -20 -35 -41 -35
-45 0 -5 -9 -9 -20 -9 -11 0 -20 -4 -20 -9 0 -5 -13 -12 -30 -16 -16 -4 -30
-11 -30 -16 0 -5 -11 -9 -25 -9 -14 0 -25 -4 -25 -10 0 -6 -48 -10 -125 -10
-77 0 -125 4 -125 10 0 6 -11 10 -25 10 -14 0 -25 4 -25 9 0 5 -11 12 -25 15
-14 4 -25 11 -25 16 0 6 -6 10 -14 10 -8 0 -17 9 -21 19 -3 11 -12 22 -20 25
-8 3 -15 13 -15 22 0 9 -10 25 -22 36 -23 19 -23 24 -23 241 0 167 3 221 13
225 6 2 12 10 12 18 0 8 5 14 10 14 6 0 10 8 10 18 0 10 9 25 20 35 11 9 20
23 20 31 0 9 18 34 40 56 22 22 40 45 40 49 0 5 11 12 25 15 14 4 25 11 25 16
0 6 6 10 13 10 7 0 19 9 27 20 8 12 31 23 52 27 21 3 38 9 38 14 0 5 9 9 20 9
11 0 20 5 20 10 0 6 11 10 24 10 13 0 26 5 28 11 5 16 240 18 245 2 3 -7 13
-13 24 -13 12 0 21 -9 25 -25 3 -14 12 -25 20 -25 8 0 14 10 14 25 0 14 5 25
10 25 6 0 10 7 10 15 0 8 4 15 9 15 4 0 11 19 14 41 3 23 10 45 15 48 5 3 12
24 15 45 4 22 10 42 15 45 5 3 13 25 17 49 4 23 11 42 16 42 5 0 9 11 9 25 0
14 4 25 9 25 5 0 12 16 15 35 4 19 11 35 15 35 5 0 11 13 14 29 4 18 14 32 27
36 11 3 20 11 20 16 0 5 7 9 15 9 8 0 15 5 15 10 0 6 14 10 30 10 17 0 30 -4
30 -10z m2460 0 c0 -5 5 -10 10 -10 24 0 50 -41 50 -80 0 -22 -4 -40 -9 -40
-4 0 -11 -19 -14 -41 -3 -23 -10 -45 -16 -48 -5 -4 -13 -26 -17 -49 -4 -23
-10 -42 -15 -42 -5 0 -9 -7 -9 -15 0 -8 -4 -15 -9 -15 -4 0 -11 -19 -14 -41
-3 -23 -10 -45 -15 -48 -5 -3 -12 -24 -15 -45 -4 -22 -10 -42 -15 -45 -5 -3
-12 -21 -15 -38 -5 -24 -3 -33 7 -33 8 0 16 7 20 15 3 8 11 15 18 15 8 0 20 9
28 20 8 11 20 20 26 20 7 0 14 6 17 13 6 19 120 15 141 -5 17 -18 24 -118 7
-118 -5 0 -12 -11 -15 -25 -4 -14 -12 -25 -19 -25 -7 0 -21 -11 -31 -25 -10
-14 -27 -25 -37 -25 -10 0 -21 -9 -24 -20 -3 -11 -13 -20 -21 -20 -18 0 -10
-35 12 -58 8 -7 14 -19 14 -26 0 -6 9 -18 20 -26 11 -8 20 -23 20 -33 0 -9 6
-20 14 -23 8 -3 17 -23 21 -45 4 -21 11 -39 16 -39 5 0 9 -7 9 -15 0 -8 -4
-15 -10 -15 -5 0 -10 -8 -10 -18 0 -32 -36 -52 -96 -52 -47 0 -58 4 -79 28
-40 44 -42 48 -49 70 -4 12 -12 22 -17 22 -5 0 -9 9 -9 20 0 11 -4 20 -10 20
-5 0 -12 11 -16 25 -3 14 -10 25 -14 25 -5 0 -12 9 -15 20 -11 34 -42 25 -49
-15 -4 -19 -11 -35 -15 -35 -5 0 -11 -19 -14 -41 -3 -23 -10 -45 -15 -48 -5
-3 -12 -18 -15 -33 -4 -15 -16 -30 -27 -33 -11 -3 -20 -11 -20 -16 0 -5 -30
-9 -66 -9 -59 0 -70 3 -90 26 l-24 25 -24 -25 c-23 -26 -25 -26 -185 -26 -88
0 -161 4 -161 9 0 5 -11 12 -25 15 -18 5 -27 15 -31 36 -4 16 -15 32 -25 35
-17 6 -19 17 -19 96 0 53 4 89 10 89 6 0 10 5 10 10 0 6 -29 10 -66 10 -83 0
-99 14 -98 83 0 27 5 52 11 55 5 4 13 25 17 47 5 22 12 43 18 46 5 3 12 25 15
48 3 22 10 41 14 41 5 0 9 7 9 15 0 8 4 15 9 15 5 0 11 13 14 30 5 21 14 31
32 36 14 3 25 10 25 15 0 5 14 9 30 9 17 0 30 -4 30 -10 0 -5 9 -10 19 -10 35
0 51 -12 51 -39 0 -14 4 -31 8 -37 4 -8 58 -13 146 -16 99 -3 141 -7 144 -16
2 -7 10 -19 18 -26 44 -45 -11 -146 -80 -146 -26 0 -36 -5 -41 -19 -3 -11 -15
-23 -26 -26 -10 -4 -19 -10 -19 -15 0 -5 -13 -23 -29 -39 -31 -32 -46 -78 -36
-111 6 -18 15 -20 96 -20 49 0 89 -4 89 -9 0 -5 14 -11 30 -14 22 -5 30 -12
31 -29 l2 -23 4 23 c2 12 9 22 14 22 5 0 9 7 9 15 0 8 4 15 9 15 5 0 12 20 15
45 4 25 11 45 15 45 5 0 12 20 15 45 4 25 11 45 17 45 5 0 9 11 9 25 0 14 4
25 9 25 5 0 12 16 15 35 4 19 11 35 15 35 5 0 12 20 15 45 4 25 11 45 17 45 5
0 9 11 9 25 0 14 4 25 9 25 6 0 13 20 17 45 3 25 10 45 14 45 4 0 11 16 14 35
4 19 11 35 15 35 5 0 12 20 15 45 4 25 11 45 17 45 5 0 9 11 9 25 0 14 4 25 9
25 5 0 12 19 16 42 7 39 14 53 42 81 27 27 43 37 58 37 8 0 15 5 15 10 0 6 16
10 35 10 19 0 35 -4 35 -10z m2370 0 c0 -5 18 -10 40 -10 22 0 40 -4 40 -9 0
-5 12 -12 27 -15 29 -8 83 -60 83 -81 0 -7 5 -15 11 -17 14 -5 16 -217 2 -227
-6 -3 -13 -19 -17 -34 -4 -16 -17 -39 -29 -52 -12 -13 -31 -35 -42 -49 -11
-14 -26 -25 -32 -26 -7 0 -13 -4 -13 -10 0 -5 -11 -10 -25 -10 -14 0 -25 -4
-25 -10 0 -6 -43 -10 -110 -10 -91 0 -110 -3 -110 -15 0 -8 -4 -15 -10 -15 -5
0 -10 -9 -10 -20 0 -11 -4 -20 -9 -20 -5 0 -12 -20 -15 -45 -4 -25 -11 -45
-15 -45 -5 0 -11 -18 -15 -40 -3 -22 -10 -40 -15 -40 -5 0 -11 -19 -14 -42 -3
-24 -11 -44 -16 -46 -6 -2 -11 -15 -11 -28 0 -13 -4 -24 -9 -24 -5 0 -12 -18
-16 -40 -4 -22 -10 -40 -15 -40 -4 0 -10 -18 -14 -40 -3 -22 -11 -40 -16 -40
-6 0 -10 -9 -10 -20 0 -11 -4 -20 -10 -20 -5 0 -12 -16 -16 -35 -3 -19 -10
-35 -15 -35 -4 0 -11 -16 -15 -35 -3 -19 -10 -35 -14 -35 -5 0 -12 -10 -16
-22 -3 -12 -16 -31 -28 -44 -11 -12 -30 -34 -41 -48 -11 -14 -28 -25 -37 -26
-9 0 -19 -9 -23 -19 -3 -11 -19 -22 -35 -26 -17 -4 -30 -11 -30 -16 0 -5 -11
-9 -25 -9 -14 0 -25 -4 -25 -10 0 -6 -50 -10 -130 -10 -80 0 -130 4 -130 10 0
6 -9 10 -20 10 -11 0 -20 4 -20 10 0 5 -16 12 -35 16 -19 3 -35 10 -35 15 0 4
-13 22 -30 39 -16 17 -30 37 -30 45 0 8 -4 15 -9 15 -5 0 -13 10 -17 23 -4 12
-11 25 -15 28 -5 3 -12 40 -15 82 -4 42 -11 77 -15 77 -5 0 -9 11 -9 25 0 14
4 25 9 25 4 0 11 39 14 86 3 48 9 89 15 93 5 3 13 21 17 39 3 17 11 32 16 32
5 0 9 7 9 15 0 9 11 26 25 39 14 13 25 29 25 36 0 7 12 25 28 40 15 15 34 37
42 48 8 12 20 22 28 22 7 0 15 7 18 15 4 8 14 15 24 15 10 0 22 9 25 20 4 14
19 22 46 26 21 4 39 10 39 15 0 5 11 9 25 9 14 0 25 5 25 10 0 6 11 10 24 10
13 0 26 5 28 11 6 17 240 18 245 2 3 -7 9 -13 15 -13 13 0 38 -26 38 -39 0 -6
6 -8 14 -5 7 3 16 24 19 47 3 23 11 43 16 45 6 2 11 17 11 33 0 16 4 29 10 29
5 0 13 18 16 40 4 22 10 40 15 40 4 0 11 20 15 45 3 25 10 45 15 45 5 0 9 9 9
20 0 18 -7 20 -69 20 -80 0 -101 13 -101 64 0 64 11 96 36 102 13 3 24 10 24
15 0 5 11 9 25 9 14 0 25 5 25 10 0 6 72 10 195 10 123 0 195 -4 195 -10z
m2170 0 c0 -5 7 -10 15 -10 8 0 15 -4 15 -9 0 -5 9 -13 20 -16 16 -5 20 -15
20 -51 0 -24 -4 -44 -10 -44 -5 0 -10 -9 -10 -20 0 -11 -4 -20 -9 -20 -5 0
-12 -20 -15 -45 -4 -25 -11 -45 -15 -45 -5 0 -11 -18 -15 -40 -3 -22 -10 -40
-16 -40 -5 0 -12 -20 -16 -45 -3 -25 -10 -45 -15 -45 -5 0 -9 -9 -9 -20 0 -11
-4 -20 -9 -20 -5 0 -12 -20 -15 -45 -4 -25 -11 -45 -16 -45 -6 0 -13 -18 -16
-40 -4 -22 -10 -40 -15 -40 -5 0 -9 -9 -9 -20 0 -11 -4 -20 -9 -20 -5 0 -12
-19 -16 -42 -4 -24 -12 -46 -17 -49 -5 -3 -12 -25 -15 -48 -3 -22 -10 -41 -14
-41 -5 0 -9 -7 -9 -15 0 -8 -4 -15 -10 -15 -5 0 -10 -4 -10 -10 0 -5 23 -10
50 -10 28 0 50 -4 50 -10 0 -5 11 -10 25 -10 14 0 28 -7 31 -15 11 -27 24 -16
24 20 0 19 4 35 9 35 5 0 12 20 15 45 4 25 11 45 15 45 5 0 11 18 15 40 3 22
10 40 16 40 5 0 12 20 16 45 3 25 10 45 15 45 5 0 9 9 9 20 0 11 5 20 10 20 6
0 10 6 10 13 0 8 9 24 19 36 11 13 22 28 24 34 5 16 139 15 145 -1 2 -7 10
-19 18 -26 16 -17 19 -93 3 -98 -5 -2 -13 -22 -16 -46 -3 -23 -10 -42 -14 -42
-5 0 -9 -7 -9 -15 0 -8 -4 -15 -9 -15 -5 0 -12 -15 -15 -34 -4 -19 -10 -36
-15 -38 -5 -2 -12 -22 -16 -45 -7 -43 -7 -43 24 -43 17 0 31 5 31 10 0 6 5 10
11 10 18 0 39 27 45 59 4 17 10 31 15 31 5 0 9 11 9 25 0 14 4 25 10 25 5 0
12 16 16 35 3 19 10 35 14 35 4 0 11 20 14 45 4 25 11 45 17 45 5 0 9 6 9 14
0 24 54 73 88 81 51 11 112 -3 112 -26 0 -10 5 -19 10 -19 6 0 10 -22 10 -50
0 -27 -4 -50 -9 -50 -5 0 -12 -18 -16 -40 -4 -22 -10 -40 -15 -40 -4 0 -10
-18 -14 -40 -3 -22 -10 -40 -16 -40 -5 0 -12 -20 -16 -45 -3 -25 -10 -45 -15
-45 -5 0 -9 -4 -9 -10 0 -5 20 -10 45 -10 25 0 45 -4 45 -10 0 -5 10 -10 23
-10 41 0 51 -15 51 -76 0 -36 -4 -59 -12 -62 -7 -2 -12 -10 -12 -18 0 -8 -7
-14 -15 -14 -8 0 -15 -4 -15 -10 0 -6 -57 -10 -150 -10 -93 0 -150 4 -150 10
0 6 -7 10 -15 10 -8 0 -15 -4 -15 -10 0 -6 -52 -10 -135 -10 -74 0 -135 4
-135 9 0 5 -11 12 -25 15 -18 5 -27 15 -32 36 -3 17 -8 30 -10 30 -11 0 -33
-30 -33 -45 0 -9 -9 -19 -20 -22 -11 -3 -20 -9 -20 -14 0 -5 -58 -9 -130 -9
-80 0 -130 4 -130 10 0 6 -11 10 -25 10 -14 0 -25 -4 -25 -10 0 -6 -48 -10
-125 -10 -69 0 -125 4 -125 9 0 5 -13 12 -30 16 -21 5 -30 13 -30 26 0 10 -4
19 -10 19 -5 0 -12 11 -16 25 -3 14 -10 25 -15 25 -5 0 -9 47 -9 105 0 58 4
105 9 105 4 0 11 18 14 40 3 22 12 47 21 55 9 9 16 25 16 35 0 10 9 22 20 25
11 3 20 10 20 15 0 13 66 80 79 80 6 0 11 5 11 10 0 6 6 10 14 10 8 0 16 5 18
12 6 17 210 18 216 0 2 -6 12 -12 22 -12 13 0 19 11 24 45 4 25 11 45 15 45 5
0 12 20 15 45 4 25 11 45 15 45 5 0 11 18 15 40 3 22 11 40 16 40 6 0 10 9 10
20 0 11 4 20 9 20 5 0 12 20 15 45 4 25 11 45 16 45 5 0 12 14 15 31 9 38 58
89 85 89 11 0 20 5 20 10 0 6 14 10 30 10 17 0 30 -4 30 -10z m4090 -70 c0 -5
5 -10 11 -10 6 0 24 -13 40 -29 24 -25 29 -37 29 -80 0 -28 -4 -51 -9 -51 -5
0 -12 -20 -15 -45 -4 -25 -11 -45 -16 -45 -4 0 -11 -22 -15 -50 -4 -27 -11
-50 -16 -50 -5 0 -9 -9 -9 -20 0 -11 -4 -20 -9 -20 -5 0 -12 -22 -16 -50 -4
-27 -11 -50 -15 -50 -5 0 -12 -20 -16 -45 -3 -25 -10 -45 -15 -45 -5 0 -9 -13
-9 -30 0 -16 -4 -30 -9 -30 -5 0 -11 -18 -15 -40 -3 -22 -11 -40 -16 -40 -5 0
-13 -12 -16 -27 -10 -38 -19 -43 -89 -43 -76 0 -95 18 -95 90 0 28 4 50 10 50
5 0 12 27 16 60 4 33 11 60 15 60 5 0 9 11 9 25 0 14 4 25 9 25 5 0 12 34 16
75 4 41 11 75 16 75 4 0 11 27 15 60 4 33 11 60 15 60 5 0 9 16 9 35 0 19 4
35 9 35 5 0 12 20 15 45 4 25 11 45 17 45 5 0 9 7 9 15 0 8 7 15 15 15 8 0 15
5 15 10 0 6 7 10 15 10 8 0 15 5 15 10 0 6 18 10 40 10 22 0 40 -4 40 -10z
m-1980 -160 c0 -5 9 -10 20 -10 11 0 30 -10 42 -22 18 -18 22 -34 23 -82 0
-39 -4 -61 -12 -63 -7 -3 -13 -13 -13 -24 0 -10 -7 -19 -15 -19 -8 0 -15 -4
-15 -10 0 -6 -29 -10 -68 -10 -58 0 -70 3 -82 21 -8 12 -21 27 -27 35 -7 7
-13 36 -13 64 0 44 4 56 29 81 16 16 39 29 50 29 12 0 21 5 21 10 0 6 14 10
30 10 17 0 30 -4 30 -10z m-386 -64 c19 -19 26 -35 26 -66 0 -22 -4 -40 -10
-40 -5 0 -10 -11 -10 -25 0 -14 -4 -25 -10 -25 -5 0 -10 -9 -10 -19 0 -20 18
-31 52 -31 32 0 48 -25 48 -74 0 -37 -6 -51 -30 -76 -26 -27 -36 -30 -89 -30
-61 0 -71 -7 -71 -51 0 -10 -4 -19 -9 -19 -5 0 -12 -15 -15 -34 -4 -19 -11
-36 -16 -38 -5 -2 -12 -22 -16 -45 l-7 -43 37 0 c20 0 36 -4 36 -10 0 -5 11
-10 24 -10 49 0 66 -45 50 -129 -5 -22 -14 -33 -30 -37 -13 -3 -24 -10 -24
-15 0 -5 -67 -9 -150 -9 -82 0 -150 4 -150 9 0 5 -11 12 -24 15 -20 5 -26 14
-32 51 -7 48 2 115 15 115 5 0 11 19 14 41 3 23 10 45 15 48 5 3 13 25 17 49
4 23 11 42 16 42 5 0 9 11 9 25 0 14 5 25 10 25 6 0 10 5 10 10 0 6 -16 10
-35 10 -29 0 -36 4 -41 25 -3 14 -10 25 -15 25 -5 0 -9 14 -9 30 0 17 5 30 10
30 6 0 10 6 10 13 0 33 36 56 98 63 l61 6 7 44 c3 24 10 44 14 44 4 0 10 14
14 30 3 17 17 42 31 56 14 14 25 29 25 34 0 11 45 19 92 15 23 -2 46 -12 62
-29z m-3574 -95 c0 -5 12 -11 28 -13 22 -2 28 -9 30 -32 6 -49 18 -54 158 -57
126 -4 131 -5 157 -31 34 -34 39 -103 8 -113 -11 -3 -23 -15 -26 -26 -5 -14
-16 -19 -43 -19 -30 -1 -43 -8 -67 -36 -16 -20 -42 -48 -57 -64 -16 -15 -28
-35 -28 -44 0 -9 -4 -16 -10 -16 -15 0 -12 -39 4 -56 10 -10 39 -14 95 -14 47
0 81 -4 81 -10 0 -5 10 -10 23 -10 39 0 49 -14 49 -73 1 -49 -3 -58 -31 -86
l-32 -31 -164 0 c-103 0 -165 4 -165 10 0 6 -6 10 -13 10 -16 0 -47 36 -47 55
0 9 -7 18 -15 21 -12 5 -15 25 -15 95 0 53 4 89 10 89 6 0 10 5 10 10 0 6 -32
10 -75 10 -71 0 -75 1 -81 25 -3 14 -10 25 -15 25 -5 0 -9 11 -9 25 0 14 4 25
9 25 6 0 13 20 17 45 3 25 10 45 14 45 4 0 11 16 14 35 4 19 11 35 16 35 6 0
10 14 10 30 0 17 4 30 9 30 5 0 12 14 16 31 9 39 34 69 57 69 10 0 18 5 18 10
0 6 14 10 30 10 17 0 30 -4 30 -9z m-4102 -122 c5 -13 40 -11 45 4 6 18 136
15 148 -4 13 -18 3 -183 -11 -187 -5 -2 -10 -10 -10 -18 0 -8 -4 -14 -9 -14
-5 0 -12 -24 -15 -52 -4 -29 -11 -55 -17 -58 -5 -3 -12 -20 -15 -38 l-6 -32
46 0 c25 0 46 -4 46 -10 0 -5 9 -10 19 -10 44 0 51 -10 51 -71 0 -53 -3 -63
-30 -89 l-31 -30 -129 0 c-80 0 -130 4 -130 10 0 6 -11 10 -25 10 -14 0 -25
-4 -25 -10 0 -6 -47 -10 -120 -10 -73 0 -120 4 -120 10 0 6 -5 10 -12 10 -15
0 -78 69 -78 85 0 8 -5 15 -12 17 -15 5 -16 217 0 227 5 3 13 21 17 39 3 17
11 32 16 32 5 0 9 7 9 16 0 8 11 27 25 42 14 15 41 44 60 65 19 20 39 37 45
37 5 0 10 5 10 10 0 6 7 10 15 10 8 0 15 4 15 9 0 21 221 21 228 0z m2040 1
c2 -6 10 -10 18 -10 8 0 14 -4 14 -10 0 -5 5 -10 11 -10 16 0 69 -56 69 -73 0
-8 7 -17 15 -21 10 -3 15 -19 15 -46 0 -22 5 -40 10 -40 6 0 10 -18 10 -40 0
-22 -4 -40 -9 -40 -5 0 -12 -29 -16 -65 -3 -36 -11 -65 -16 -65 -5 0 -9 -7 -9
-15 0 -8 -4 -15 -10 -15 -5 0 -10 -8 -10 -19 0 -10 -16 -35 -35 -55 -19 -21
-35 -41 -35 -46 0 -4 -16 -11 -35 -14 -19 -4 -35 -11 -35 -16 0 -6 -58 -10
-140 -10 -82 0 -140 4 -140 10 0 5 -16 12 -35 16 -21 4 -37 13 -40 25 -4 10
-10 19 -15 19 -5 0 -12 16 -16 35 -3 19 -10 35 -15 35 -5 0 -9 16 -9 35 0 19
-4 35 -10 35 -5 0 -10 16 -10 35 0 19 5 35 10 35 6 0 10 20 10 45 0 25 4 45
10 45 5 0 12 16 16 35 3 19 10 35 15 35 5 0 9 7 9 16 0 9 14 30 30 46 17 15
30 33 30 38 0 5 11 12 25 16 14 3 25 10 25 15 0 5 7 9 15 9 8 0 15 5 15 10 0
6 7 10 15 10 8 0 15 4 15 9 0 21 231 22 238 1z m2930 0 c2 -6 10 -10 18 -10 8
0 14 -4 14 -10 0 -5 7 -10 15 -10 8 0 15 -4 15 -9 0 -5 9 -13 20 -16 12 -4 23
-18 27 -35 3 -16 11 -31 19 -34 9 -3 14 -21 14 -46 0 -22 5 -40 10 -40 6 0 10
-18 10 -40 0 -22 -4 -40 -9 -40 -5 0 -12 -29 -16 -65 -3 -36 -10 -65 -15 -65
-5 0 -11 -14 -15 -31 -4 -17 -25 -49 -46 -70 -21 -21 -39 -43 -39 -48 0 -5
-16 -12 -35 -15 -19 -4 -35 -11 -35 -16 0 -6 -58 -10 -140 -10 -82 0 -140 4
-140 10 0 5 -16 12 -35 16 -21 4 -37 13 -40 25 -4 10 -10 19 -15 19 -5 0 -12
15 -15 33 -4 17 -12 35 -18 39 -15 9 -13 221 1 226 6 2 14 19 18 38 3 19 10
34 15 34 5 0 9 7 9 16 0 9 14 30 30 46 17 15 30 33 30 38 0 5 11 12 25 16 14
3 25 10 25 15 0 5 7 9 15 9 8 0 15 5 15 10 0 6 7 10 15 10 8 0 15 4 15 9 0 21
231 22 238 1z m2110 -1 c2 -5 10 -9 17 -9 8 0 16 -9 20 -19 3 -11 14 -23 24
-26 22 -7 31 -44 31 -126 0 -49 -4 -62 -25 -84 -21 -21 -35 -25 -80 -25 -68 0
-85 7 -85 34 0 48 -11 66 -41 66 -38 0 -66 -29 -75 -77 -4 -21 -12 -42 -18
-46 -8 -6 -7 -10 2 -14 6 -2 12 -16 12 -29 0 -15 6 -24 15 -24 8 0 15 -4 15
-10 0 -6 48 -10 125 -10 77 0 125 -4 125 -10 0 -5 10 -10 23 -10 34 0 57 -34
57 -85 0 -46 -22 -85 -47 -85 -7 0 -13 -4 -13 -10 0 -6 -73 -10 -200 -10 -110
0 -200 4 -200 9 0 5 -11 12 -25 15 -14 4 -25 11 -25 16 0 5 -13 23 -30 40 -16
17 -30 37 -30 45 0 7 -5 15 -11 17 -8 3 -11 41 -11 113 0 72 3 110 11 113 6 2
11 15 11 28 0 13 4 24 10 24 5 0 13 12 16 26 4 14 18 39 33 54 14 16 31 35 38
42 21 23 42 38 53 38 5 0 10 5 10 10 0 6 7 10 15 10 8 0 15 4 15 9 0 21 231
21 238 0z m990 -6 c18 -18 21 -115 3 -121 -6 -2 -11 -12 -11 -23 0 -10 -4 -19
-9 -19 -5 0 -11 -19 -15 -42 -4 -23 -12 -45 -17 -49 -6 -3 -13 -25 -16 -48 -3
-22 -10 -41 -14 -41 -5 0 -9 -7 -9 -15 0 -8 -4 -15 -10 -15 -5 0 -10 -4 -10
-10 0 -5 23 -10 50 -10 28 0 50 -4 50 -9 0 -5 12 -11 28 -13 19 -2 28 -9 30
-25 2 -13 8 -23 13 -23 5 0 9 -16 9 -35 0 -19 -4 -35 -10 -35 -5 0 -12 -11
-16 -25 -3 -14 -12 -25 -20 -25 -8 0 -14 -4 -14 -10 0 -6 -58 -10 -155 -10
-97 0 -155 4 -155 10 0 6 -6 10 -13 10 -28 0 -47 39 -47 100 0 33 4 60 10 60
5 0 13 18 16 40 4 22 10 40 15 40 4 0 11 20 15 45 3 25 10 45 15 45 5 0 9 9 9
20 0 11 4 20 9 20 5 0 12 20 15 45 4 25 11 45 16 45 5 0 12 17 16 37 4 20 18
47 30 60 13 13 24 28 24 33 0 24 143 19 168 -7z m530 6 c2 -5 10 -9 18 -9 8 0
14 -4 14 -10 0 -5 5 -10 11 -10 16 0 69 -57 69 -75 0 -8 7 -18 15 -21 10 -4
15 -20 15 -45 0 -21 5 -39 10 -39 6 0 10 -18 10 -40 0 -22 -4 -40 -10 -40 -5
0 -10 -16 -10 -35 0 -19 -4 -35 -9 -35 -4 0 -11 -19 -14 -42 -3 -24 -11 -44
-16 -46 -6 -2 -11 -12 -11 -22 0 -24 -82 -108 -114 -116 -14 -3 -26 -10 -26
-15 0 -5 -63 -9 -140 -9 -77 0 -140 4 -140 9 0 5 -15 12 -34 15 -22 4 -37 14
-41 26 -4 11 -11 20 -16 20 -5 0 -9 6 -9 14 0 8 -5 16 -10 18 -6 2 -13 27 -17
56 -3 28 -10 52 -14 52 -5 0 -9 16 -9 35 0 19 4 35 9 35 5 0 11 26 13 57 3 31
10 59 16 61 7 2 12 12 12 23 0 10 5 19 10 19 6 0 10 7 10 17 0 9 7 23 15 32 8
9 26 28 40 44 14 15 32 27 40 27 8 0 15 5 15 10 0 6 7 10 15 10 8 0 15 5 15
10 0 6 7 10 15 10 8 0 15 4 15 9 0 21 231 21 238 0z m540 0 c5 -13 40 -11 44
3 6 17 200 17 206 0 2 -6 8 -12 14 -12 14 0 34 -23 42 -48 4 -12 12 -22 17
-22 5 0 9 -25 9 -55 0 -30 -4 -55 -9 -55 -5 0 -12 -20 -15 -45 -4 -25 -11 -45
-16 -45 -6 0 -13 -18 -16 -40 -4 -22 -10 -40 -15 -40 -5 0 -9 -9 -9 -20 0 -17
7 -20 50 -20 28 0 50 -4 50 -9 0 -5 13 -11 29 -14 53 -11 53 -107 0 -159 l-27
-28 -156 0 c-86 0 -156 4 -156 9 0 5 -9 11 -20 14 -12 3 -20 14 -20 26 0 12
-4 21 -10 21 -5 0 -10 16 -10 35 0 19 4 35 9 35 5 0 13 25 16 55 4 30 11 55
16 55 5 0 12 18 15 40 4 22 10 40 15 40 5 0 9 9 9 20 0 11 5 20 10 20 6 0 10
16 10 35 0 33 -2 35 -34 35 -25 0 -36 -5 -41 -19 -3 -11 -12 -22 -20 -25 -8
-3 -15 -15 -15 -26 0 -11 -4 -20 -10 -20 -5 0 -10 -11 -10 -25 0 -14 -4 -25
-9 -25 -6 0 -13 -20 -17 -45 -3 -25 -10 -45 -15 -45 -4 0 -11 -16 -15 -35 -3
-19 -10 -35 -15 -35 -5 0 -9 -11 -9 -25 0 -14 -4 -25 -10 -25 -5 0 -10 -8 -10
-19 0 -10 -11 -30 -25 -45 -21 -23 -32 -26 -90 -26 -80 0 -105 19 -105 80 0
22 4 40 9 40 4 0 11 19 14 42 3 24 11 44 16 46 6 2 11 15 11 28 0 13 4 24 9
24 5 0 12 16 15 35 4 19 11 35 15 35 5 0 11 19 14 41 3 23 10 45 15 48 5 3 12
24 15 46 4 22 11 41 17 43 5 2 10 12 10 23 0 10 5 19 10 19 6 0 10 6 10 13 0
22 33 55 60 60 35 7 124 -2 128 -14z m632 -389 c0 -5 9 -10 20 -10 10 0 33
-13 50 -30 27 -26 30 -36 30 -89 0 -50 -3 -61 -19 -66 -11 -3 -23 -15 -26 -26
-5 -16 -16 -19 -71 -19 -57 0 -68 3 -94 29 -17 15 -30 36 -30 45 0 9 -4 16
-10 16 -5 0 -10 11 -10 25 0 14 5 25 10 25 6 0 10 12 10 28 0 31 30 62 60 62
11 0 20 5 20 10 0 6 14 10 30 10 17 0 30 -4 30 -10z"/>
<path d="M738 1100 c-1 -5 -40 -12 -85 -16 -46 -4 -83 -11 -83 -15 0 -5 -13
-9 -30 -9 -16 0 -30 -4 -30 -10 0 -5 -7 -10 -15 -10 -8 0 -15 -4 -15 -10 0 -5
-9 -10 -20 -10 -11 0 -23 -7 -26 -15 -4 -8 -10 -15 -15 -15 -19 0 -86 -76 -93
-105 -4 -16 -13 -33 -19 -37 -16 -10 -17 -236 -1 -246 6 -4 14 -17 18 -29 4
-13 14 -23 22 -23 8 0 14 -4 14 -10 0 -6 26 -10 59 -10 50 0 61 3 66 19 3 10
17 22 30 25 13 3 27 15 30 26 3 11 11 20 16 20 5 0 9 5 9 11 0 6 7 17 15 25 8
9 15 24 15 35 0 10 4 19 10 19 5 0 12 16 16 35 3 19 10 35 15 35 5 0 9 7 9 15
0 8 4 15 9 15 6 0 13 20 17 45 3 25 10 45 14 45 5 0 11 19 15 43 4 23 12 45
17 48 5 3 12 25 15 48 3 22 10 41 14 41 5 0 9 7 9 15 0 17 -16 21 -22 5z"/>
<path d="M5450 1101 c0 -5 -38 -12 -85 -16 -47 -4 -85 -11 -85 -16 0 -5 -16
-9 -35 -9 -19 0 -35 -4 -35 -10 0 -5 -7 -10 -15 -10 -8 0 -15 -4 -15 -9 0 -5
-11 -12 -25 -15 -14 -4 -25 -11 -25 -16 0 -6 -6 -10 -14 -10 -8 0 -17 -9 -21
-19 -3 -11 -15 -23 -26 -26 -12 -4 -22 -19 -26 -36 -3 -16 -9 -29 -14 -29 -4
0 -11 -16 -15 -35 -3 -19 -10 -35 -15 -35 -5 0 -9 -38 -9 -85 0 -47 4 -85 9
-85 5 0 11 -14 15 -31 6 -32 27 -59 45 -59 6 0 11 -4 11 -10 0 -5 24 -10 53
-10 41 0 56 4 67 20 8 11 19 20 25 20 14 0 45 37 45 54 0 8 7 16 15 20 8 3 15
15 15 26 0 11 5 20 10 20 6 0 10 6 10 14 0 8 6 21 14 28 7 8 17 33 21 56 4 23
11 42 16 42 5 0 9 9 9 20 0 11 4 20 9 20 5 0 11 18 15 40 3 22 10 40 15 40 5
0 11 19 14 42 3 24 11 44 16 46 6 2 11 12 11 23 0 10 5 19 10 19 6 0 10 7 10
15 0 8 -4 15 -10 15 -5 0 -10 -4 -10 -9z"/>
<path d="M7645 1111 c-3 -11 -15 -23 -26 -26 -12 -4 -22 -19 -26 -36 -3 -16
-9 -29 -14 -29 -5 0 -9 -27 -9 -60 l0 -60 49 0 c51 0 61 9 61 51 0 10 4 19 9
19 5 0 12 16 15 35 4 19 11 35 16 35 6 0 10 9 10 20 0 11 5 20 10 20 6 0 10 5
10 11 0 39 -93 56 -105 20z"/>
<path d="M2040 1121 c0 -5 -13 -23 -30 -39 -16 -17 -30 -38 -30 -46 0 -9 -4
-16 -10 -16 -6 0 -10 -27 -10 -60 l0 -60 36 0 c35 0 64 18 64 39 0 6 4 11 9
11 6 0 13 20 17 45 3 25 10 45 14 45 9 0 19 60 13 78 -6 14 -73 17 -73 3z"/>
<path d="M4090 1103 c0 -7 -7 -13 -15 -13 -13 0 -37 -22 -72 -64 -17 -21 -16
-94 1 -112 23 -22 85 -18 107 8 11 11 19 27 19 35 0 7 5 13 10 13 6 0 10 24
10 54 0 48 -3 56 -22 62 -13 4 -26 12 -30 18 -6 8 -8 7 -8 -1z"/>
<path d="M7020 1103 c0 -7 -7 -13 -15 -13 -13 0 -37 -22 -72 -64 -17 -21 -16
-94 1 -112 25 -24 83 -18 114 13 24 24 27 35 27 92 0 58 -2 66 -20 69 -11 3
-23 9 -27 16 -6 8 -8 7 -8 -1z"/>
<path d="M10650 1103 c0 -7 -8 -13 -19 -13 -10 0 -27 -12 -37 -26 -10 -14 -25
-32 -31 -39 -18 -18 -16 -93 1 -111 23 -22 85 -18 107 8 11 11 19 27 19 35 0
7 5 13 10 13 6 0 10 24 10 54 0 48 -3 56 -22 62 -13 4 -26 12 -30 18 -6 8 -8
7 -8 -1z"/>
</g>
</svg>
